<svg xmlns="http://www.w3.org/2000/svg" viewBox="0 0 84.6 146"><defs><style>.cls-1{fill:none;stroke:#fff;stroke-miterlimit:10;}</style></defs><title>Ресурс 2</title><g id="Слой_2" data-name="Слой 2"><g id="Слой_1-2" data-name="Слой 1"><path class="cls-1" d="M42.3,71.66C19.46,71.66.5,82.56.5,108.58s19,36.92,41.8,36.92,41.8-10.9,41.8-36.92S65.14,71.66,42.3,71.66Zm0,52.16c-15.42,0-23-4.81-23-15.24s7.54-15.24,23-15.24,23,4.8,23,15.24S57.72,123.82,42.3,123.82Zm-13-64.13c-6.83-8.67-10-18.52-10-26.49,0-6.1,2.35-10.43,7.18-10.43,6.12,0,8.36,6.09,12.72,13.48,6.71,11.37,14.25,26,33.56,26h9.54V.5H64.08V37.42C62,37.42,58.19,30.74,53,22.18,46.89,12.1,38.88,1.09,25.34,1.09,7.56,1.09.5,15.27.5,31.21A48.55,48.55,0,0,0,9.33,59.69Z"/></g></g></svg>