<svg xmlns="http://www.w3.org/2000/svg" viewBox="0 0 83.69 144.42"><defs><style>.cls-1{fill:none;stroke:#fff;stroke-miterlimit:10;}</style></defs><title>Ресурс 3</title><g id="Слой_2" data-name="Слой 2"><g id="Слой_1-2" data-name="Слой 1"><path class="cls-1" d="M41.84,70.95C19.25,70.95.5,81.72.5,107.43s18.75,36.49,41.34,36.49,41.34-10.77,41.34-36.49S64.44,70.95,41.84,70.95Zm0,51.55c-15.26,0-22.71-4.75-22.71-15.06s7.45-15.06,22.71-15.06,22.71,4.75,22.71,15.06S57.1,122.49,41.84,122.49Zm-15-63.15c-5.24-7.76-7.69-16.68-7.69-23.17,0-8,2.33-12.16,6.75-12.16s6.06,4.4,5.94,10.08L31.71,45l18.05.12V31.66c0-6.49,1.86-10.77,6.52-10.77,5.82,0,8.15,6.72,8.27,14.36A45.94,45.94,0,0,1,58,60.74h19.8a69.11,69.11,0,0,0,5.36-27.22c0-16.56-6.06-33-23.41-33C48.37.5,42,7.22,39.28,15.91,36.6,8.14,30.78,3.74,22.51,3.74c-15.26,0-22,13-22,29.54,0,9.5,2.45,19,6.52,26.06Z"/></g></g></svg>