<svg xmlns="http://www.w3.org/2000/svg" viewBox="0 0 420 512"><defs><style>.cls-1{fill:#fff;}</style></defs><title>Ресурс 2_01</title><g id="Слой_2" data-name="Слой 2"><g id="Слой_1-2" data-name="Слой 1"><path class="cls-1" d="M130,146a10,10,0,1,0-10-10A10,10,0,0,0,130,146Z"/><path class="cls-1" d="M130,206a10,10,0,1,0-10-10A10,10,0,0,0,130,206Z"/><path class="cls-1" d="M110,512H350a70.08,70.08,0,0,0,70-70,10,10,0,0,0-10-10H380V50A50.06,50.06,0,0,0,330,0H40A40,40,0,0,0,0,40V90a10,10,0,0,0,10,10H60V459.86C60,487,80.69,512,110,512Zm240-20H150a50.06,50.06,0,0,0,10-30.1v-10H399A50.17,50.17,0,0,1,350,492ZM360,50V432H150a10,10,0,0,0-10,10v20a30,30,0,0,1-30,30c-17.93,0-30-15.52-30-32.14V40a39.94,39.94,0,0,0-5.35-20H330A30,30,0,0,1,360,50ZM20,80V40a20,20,0,0,1,40,0V80Z"/><path class="cls-1" d="M220,286a59.41,59.41,0,0,0,20,44.69V396a10,10,0,0,0,15.55,8.32L280,388l24.45,16.3A10,10,0,0,0,320,396V330.69A59.41,59.41,0,0,0,340,286a60,60,0,0,0-120,0Zm65.55,81.68a10,10,0,0,0-11.09,0L260,377.32V342.59a60.29,60.29,0,0,0,40,0v34.73ZM320,286a40,40,0,1,1-40-40A40,40,0,0,1,320,286Z"/><path class="cls-1" d="M130,86H310a10,10,0,0,0,0-20H130a10,10,0,0,0,0,20Z"/><path class="cls-1" d="M170,146H310a10,10,0,0,0,0-20H170a10,10,0,0,0,0,20Z"/><path class="cls-1" d="M170,206H310a10,10,0,0,0,0-20H170a10,10,0,0,0,0,20Z"/><path class="cls-1" d="M130,326h60a10,10,0,0,0,0-20H130a10,10,0,0,0,0,20Z"/><path class="cls-1" d="M130,266h60a10,10,0,0,0,0-20H130a10,10,0,0,0,0,20Z"/><path class="cls-1" d="M130,386h60a10,10,0,0,0,0-20H130a10,10,0,0,0,0,20Z"/></g></g></svg>