<svg xmlns="http://www.w3.org/2000/svg" viewBox="0 0 460 416.43"><defs><style>.cls-1{fill:#fff;}</style></defs><title>Ресурс 2_03</title><g id="Слой_2" data-name="Слой 2"><g id="Слой_1-2" data-name="Слой 1"><path class="cls-1" d="M363.74,162a10.34,10.34,0,0,0,14.35,3.3l77-49a10.58,10.58,0,0,0-.4-18L286.21,1.37a10.3,10.3,0,0,0-10.69.25L167.33,70.49l-.07,0L113.2,104.95l-.07,0L4.86,173.91A10.58,10.58,0,0,0,5.27,192L173.79,288.8a10.31,10.31,0,0,0,10.69-.24l77-49A10.59,10.59,0,0,0,264.78,225a10.34,10.34,0,0,0-14.35-3.3L178.66,267.4l-148-85,88.28-56.2,157.85,90.71V337a10.54,10.54,0,0,0,5.38,9.21,10.33,10.33,0,0,0,10.57-.31l54.13-34.46a10.55,10.55,0,0,0,4.86-8.9V176.28c0-.06,0-.12,0-.18,0-.35,0-.7-.07-1,0-.09,0-.17,0-.26a10.6,10.6,0,0,0-.25-1.27h0a10.66,10.66,0,0,0-.39-1.16l-.14-.32q-.18-.42-.4-.82l-.19-.35-.1-.19c-.15-.25-.32-.48-.49-.71l-.09-.13a10,10,0,0,0-.84-1l-.17-.17c-.26-.25-.52-.48-.8-.7l-.21-.17a10.72,10.72,0,0,0-1.15-.76L193.06,79l88.28-56.2,148,85L367,147.5A10.59,10.59,0,0,0,363.74,162Zm-42.67,14.73-13,8.25a10.59,10.59,0,0,0-3.26,14.51,10.37,10.37,0,0,0,8.82,4.92,10.27,10.27,0,0,0,5.53-1.62l11.72-7.46V296.72l-33.32,21.21V210.74a10.54,10.54,0,0,0-5.26-9.15L138.93,113.44,173.08,91.7Zm123-36.2-77,49a10.59,10.59,0,0,0-3.26,14.51,10.33,10.33,0,0,0,14.35,3.3l77-49a10.59,10.59,0,0,0,3.26-14.51A10.34,10.34,0,0,0,444,140.54ZM250.43,263.79l-71.77,45.69L15.55,215.75A10.34,10.34,0,0,0,1.36,219.7,10.58,10.58,0,0,0,5.27,234l168.53,96.84a10.31,10.31,0,0,0,10.69-.24l77-49a10.59,10.59,0,0,0,3.26-14.51A10.34,10.34,0,0,0,250.43,263.79ZM444,182.63l-77,49a10.59,10.59,0,0,0-3.26,14.51,10.33,10.33,0,0,0,14.35,3.3l77-49a10.59,10.59,0,0,0,3.26-14.51A10.34,10.34,0,0,0,444,182.63ZM250.43,305.88l-71.77,45.69L15.55,257.84a10.35,10.35,0,0,0-14.19,3.95,10.58,10.58,0,0,0,3.9,14.35L173.79,373a10.3,10.3,0,0,0,10.69-.24l77-49a10.59,10.59,0,0,0,3.26-14.51A10.34,10.34,0,0,0,250.43,305.88ZM444,224.71l-77,49a10.58,10.58,0,0,0-3.26,14.51,10.37,10.37,0,0,0,8.82,4.92,10.26,10.26,0,0,0,5.53-1.62l77-49A10.59,10.59,0,0,0,458.4,228,10.34,10.34,0,0,0,444,224.71ZM250.43,348l-71.77,45.68L15.55,299.92a10.34,10.34,0,0,0-14.19,3.95,10.58,10.58,0,0,0,3.9,14.34l168.53,96.84a10.29,10.29,0,0,0,10.69-.24l77-49a10.59,10.59,0,0,0,3.26-14.51A10.34,10.34,0,0,0,250.43,348Z"/></g></g></svg>