<svg xmlns="http://www.w3.org/2000/svg" viewBox="0 0 357.54 456"><defs><style>.cls-1{fill:#fff;}</style></defs><title>Ресурс 2_02</title><g id="Слой_2" data-name="Слой 2"><g id="Слой_1-2" data-name="Слой 1"><path class="cls-1" d="M306.43,149.12H149.14a10.75,10.75,0,0,0,0,21.5H306.43a10.75,10.75,0,0,0,0-21.5ZM44.38,163l21.13,17.38a14.13,14.13,0,0,0,18.1-.28l29.83-26a10.82,10.82,0,0,0,1.09-15.16,10.57,10.57,0,0,0-15-1.1l-25.25,22L57.83,146.29a10.58,10.58,0,0,0-15,1.54A10.82,10.82,0,0,0,44.38,163Zm262.06,83.15H149.14a10.75,10.75,0,0,0,0,21.5H306.43a10.75,10.75,0,0,0,0-21.5ZM99.51,234.76l-25.25,22L57.83,243.3a10.57,10.57,0,0,0-15,1.54A10.82,10.82,0,0,0,44.38,260L65.5,277.34a14.14,14.14,0,0,0,18.11-.27L113.44,251a10.82,10.82,0,0,0,1.09-15.16A10.57,10.57,0,0,0,99.51,234.76ZM306.43,343.12H149.14a10.75,10.75,0,0,0,0,21.5H306.43a10.75,10.75,0,0,0,0-21.5ZM99.51,331.76l-25.25,22L57.83,340.29a10.57,10.57,0,0,0-15,1.54A10.82,10.82,0,0,0,44.38,357l21.12,17.38a14.13,14.13,0,0,0,18.1-.27l29.83-26a10.82,10.82,0,0,0,1.09-15.16A10.57,10.57,0,0,0,99.51,331.76ZM329.94,35.68H279.25c-2.66,0-2.5-3.06-2.5-3.06v-9A23.51,23.51,0,0,0,253.39,0H104.15A23.51,23.51,0,0,0,80.79,23.6V33a2.45,2.45,0,0,1-2.71,2.65H27.61A27.77,27.77,0,0,0,0,63.55V428.12A27.77,27.77,0,0,0,27.61,456H329.94a27.77,27.77,0,0,0,27.61-27.88V63.55A27.77,27.77,0,0,0,329.94,35.68ZM104.15,21.5H253.38a2.11,2.11,0,0,1,2.07,2.1V67.13a2.11,2.11,0,0,1-2.07,2.1H104.15a2.11,2.11,0,0,1-2.07-2.1V23.6h0A2.11,2.11,0,0,1,104.15,21.5ZM336.25,428.12a6.43,6.43,0,0,1-6.31,6.37H27.6a6.43,6.43,0,0,1-6.31-6.37V63.55a6.43,6.43,0,0,1,6.31-6.37H79.1A1.53,1.53,0,0,1,80.79,59v8.17a23.61,23.61,0,0,0,17.37,22.8l.61.15a23.12,23.12,0,0,0,4.18.61c.4,0,.8,0,1.2,0H253.38a23,23,0,0,0,9.09-1.86c.35-.15.69-.31,1-.48a23.64,23.64,0,0,0,13.24-21.26v-8a2.06,2.06,0,0,1,2.27-2h50.91a6.43,6.43,0,0,1,6.31,6.37Z"/></g></g></svg>