<svg xmlns="http://www.w3.org/2000/svg" viewBox="0 0 103 60"><defs><style>.cls-1{fill:#fff;}</style></defs><title>Ресурс 3</title><g id="Слой_2" data-name="Слой 2"><g id="Слой_1-2" data-name="Слой 1"><path class="cls-1" d="M36.48,47.14a2.14,2.14,0,1,0,2.15,2.14A2.14,2.14,0,0,0,36.48,47.14ZM85.77,12.87H73V4.29A4.29,4.29,0,0,0,68.66,0H21.46a4.29,4.29,0,0,0-4.29,4.29h-15a2.14,2.14,0,1,0,0,4.28h15v8.57H6.44a2.14,2.14,0,1,0,0,4.28H17.17V30H10.73a2.14,2.14,0,1,0,0,4.28h6.44v8.57H15a2.14,2.14,0,1,0,0,4.29h2.15a4.29,4.29,0,0,0,4.29,4.28H26a10.73,10.73,0,0,0,21,0H75.32a10.73,10.73,0,0,0,21,0H103L103,30ZM36.48,55.71a6.43,6.43,0,1,1,6.44-6.43A6.44,6.44,0,0,1,36.48,55.71Zm32.18-8.57H47a10.73,10.73,0,0,0-21,0H21.46V4.29h47.2Zm17.17,8.57a6.43,6.43,0,1,1,6.44-6.43A6.44,6.44,0,0,1,85.83,55.71Zm12.84-8.57H96.35a10.73,10.73,0,0,0-21,0H73v-30H84L98.71,31.78Zm-12.84,0A2.14,2.14,0,1,0,88,49.28,2.14,2.14,0,0,0,85.83,47.14Z"/></g></g></svg>