<svg xmlns="http://www.w3.org/2000/svg" viewBox="0 0 88 74"><defs><style>.cls-1{fill:#fff;}</style></defs><title>Ресурс 1</title><g id="Слой_2" data-name="Слой 2"><g id="Слой_1-2" data-name="Слой 1"><path class="cls-1" d="M80.39,23.33H60.8V7.5A7.54,7.54,0,0,0,53.28,0H7.52A7.54,7.54,0,0,0,0,7.5V34.94a7.54,7.54,0,0,0,7.52,7.5H12l5.61,7.5a1.78,1.78,0,0,0,1.59.74,2.22,2.22,0,0,0,1.59-.74l5.61-7.5h.84V58.27a7.54,7.54,0,0,0,7.52,7.5h26.9l5.61,7.5a1.78,1.78,0,0,0,1.59.74,2.22,2.22,0,0,0,1.59-.74L76,65.76h4.45A7.54,7.54,0,0,0,88,58.27V30.82A7.54,7.54,0,0,0,80.39,23.33ZM25.32,38.52a2.22,2.22,0,0,0-1.59.74l-4.66,6.12-4.66-6.12a1.78,1.78,0,0,0-1.59-.74H7.32a3.56,3.56,0,0,1-3.6-3.59V7.5a3.56,3.56,0,0,1,3.6-3.59H53.07a3.56,3.56,0,0,1,3.6,3.59V34.94a3.56,3.56,0,0,1-3.6,3.59H25.32ZM84.1,58.27a3.56,3.56,0,0,1-3.6,3.59H75a2.22,2.22,0,0,0-1.59.74l-4.66,6.12L64.08,62.6a1.78,1.78,0,0,0-1.59-.74H34.74a3.56,3.56,0,0,1-3.6-3.59V42.43H53.28a7.41,7.41,0,0,0,4-1.16H72.12a1.9,1.9,0,1,0,0-3.79H60.47a6.45,6.45,0,0,0,.42-2.53v-7.6H80.49a3.56,3.56,0,0,1,3.6,3.59V58.27Zm-10.17-8a1.89,1.89,0,0,1-1.9,1.9H43.22a1.9,1.9,0,1,1,0-3.79H72A1.89,1.89,0,0,1,73.93,50.24ZM44.59,28.81H15.89a1.9,1.9,0,1,1,0-3.79h28.7a1.89,1.89,0,0,1,1.9,1.9A1.82,1.82,0,0,1,44.59,28.81ZM14,15.94a1.89,1.89,0,0,1,1.9-1.9H33.14a1.9,1.9,0,1,1,0,3.79H15.89A1.89,1.89,0,0,1,14,15.94Z"/></g></g></svg>