<svg xmlns="http://www.w3.org/2000/svg" viewBox="0 0 85 81"><defs><style>.cls-1{fill:#fff;}</style></defs><title>Ресурс 2</title><g id="Слой_2" data-name="Слой 2"><g id="Слой_1-2" data-name="Слой 1"><path class="cls-1" d="M54.66,56.15V54.68a15.37,15.37,0,0,0,1.21-1.09A21.81,21.81,0,0,0,61.43,41.4a10.82,10.82,0,0,0,7-4.13c2.33-3.28,2.54-8,.6-13.92a1.6,1.6,0,0,0-.64-.83l-.88-.59A21.62,21.62,0,0,0,62.27,7.33C57.94,2.48,51.29,0,42.49,0S27,2.48,22.72,7.26a21.62,21.62,0,0,0-5.21,14.61l-.88.59a1.6,1.6,0,0,0-.64.83c-1.95,6-1.74,10.64.6,13.92a10.85,10.85,0,0,0,7,4.18,21.83,21.83,0,0,0,5.58,12.21,15.69,15.69,0,0,0,1.21,1.09v1.47C24.19,57.34-.41,63.08,0,79.4A1.6,1.6,0,0,0,1.61,81H83.39A1.6,1.6,0,0,0,85,79.4C85.42,63.08,60.82,57.34,54.66,56.15ZM22.59,37.82a7,7,0,0,1-3.41-2.48l.08,0c-1.61-2.34-1.75-5.87-.32-10.54L20.12,24a1.6,1.6,0,0,0,.71-1.49A18.84,18.84,0,0,1,25.2,9.37c3.64-4.1,9.48-6.14,17.29-6.18S56.15,5.28,59.85,9.37a18.84,18.84,0,0,1,4.38,13.17A1.6,1.6,0,0,0,64.94,24l1.17.78c1.43,4.66,1.34,8.21-.32,10.54a7,7,0,0,1-3.43,2.48,10.62,10.62,0,0,0,2.62-8,7.48,7.48,0,0,0-2.59-4.48c-.69-16-12-17.79-16.83-17.79a20.35,20.35,0,0,0-3.07.22,20.35,20.35,0,0,0-3.07-.22c-4.83,0-16.09,1.76-16.83,17.79A7.48,7.48,0,0,0,20,29.82,10.6,10.6,0,0,0,22.59,37.82ZM59.19,24.7A33.29,33.29,0,0,1,40,19.9a1.62,1.62,0,0,0-2.09.21c-3.22,3.44-9.09,4.24-11.92,4.42.87-11.31,7.75-13.77,13.55-13.77a15.69,15.69,0,0,1,2.75.22,1.6,1.6,0,0,0,.64,0,15.69,15.69,0,0,1,2.75-.22c5.74,0,12.66,2.53,13.47,13.93ZM26.52,38.12l.06,0a1.59,1.59,0,0,0-.4-1.07c-2.2-2.51-3.22-4.8-2.94-6.69a4.23,4.23,0,0,1,1.46-2.7c2.12,0,9.65-.4,14.48-4.54A36.44,36.44,0,0,0,57,27.93a21.37,21.37,0,0,0,3.31-.18,4.22,4.22,0,0,1,1.45,2.62c.27,1.86-.74,4.18-2.94,6.69a1.6,1.6,0,0,0-.4,1.07V39l-9.36,5a4.65,4.65,0,0,0-6.55.18,4.59,4.59,0,0,0,.18,6.51,4.65,4.65,0,0,0,6.55-.18,4.59,4.59,0,0,0,1.27-3.17q0-.22,0-.43l7.38-3.94a17.56,17.56,0,0,1-4.31,8.45,14.38,14.38,0,0,1-10.67,4h-.8a14.42,14.42,0,0,1-10.65-4C26.41,46.36,26.52,38.2,26.52,38.12Zm20.8,9.18a1.43,1.43,0,1,1-1.43-1.42A1.43,1.43,0,0,1,47.32,47.31ZM40.88,77.7H3.27c1.27-12,20.91-17,27.06-18.33v2.86c0,3.63,4.44,6.4,10.55,6.86ZM33.55,62.23V56.71a19.53,19.53,0,0,0,8.54,1.79h.8a19.53,19.53,0,0,0,8.54-1.79v5.52c0,1.52-3.49,3.71-8.94,3.71S33.55,63.75,33.55,62.23ZM44.1,77.75V69.08c6.11-.42,10.55-3.2,10.55-6.86v-2.8c6.19,1.28,25.74,6.3,27.06,18.33Z"/></g></g></svg>